<svg width="178" height="48" viewBox="0 0 178 48" fill="none" xmlns="http://www.w3.org/2000/svg">
<circle cx="24" cy="24" r="24" fill="#C4C4C4"/>
<path d="M80.368 35V12.28H84.784V31.128H96.368V35H80.368ZM108.896 35.32C107.531 35.32 106.304 35.0853 105.216 34.616C104.128 34.1467 103.2 33.5173 102.432 32.728C101.685 31.9173 101.109 30.9893 100.704 29.944C100.299 28.8987 100.096 27.8 100.096 26.648C100.096 25.4747 100.299 24.3653 100.704 23.32C101.109 22.2747 101.685 21.3573 102.432 20.568C103.2 19.7573 104.128 19.1173 105.216 18.648C106.304 18.1787 107.531 17.944 108.896 17.944C110.261 17.944 111.477 18.1787 112.544 18.648C113.632 19.1173 114.549 19.7573 115.296 20.568C116.064 21.3573 116.651 22.2747 117.056 23.32C117.461 24.3653 117.664 25.4747 117.664 26.648C117.664 27.8 117.461 28.8987 117.056 29.944C116.651 30.9893 116.075 31.9173 115.328 32.728C114.581 33.5173 113.664 34.1467 112.576 34.616C111.488 35.0853 110.261 35.32 108.896 35.32ZM104.512 26.648C104.512 27.3947 104.619 28.0773 104.832 28.696C105.067 29.2933 105.376 29.816 105.76 30.264C106.165 30.712 106.635 31.064 107.168 31.32C107.701 31.5547 108.277 31.672 108.896 31.672C109.515 31.672 110.091 31.5547 110.624 31.32C111.157 31.064 111.616 30.712 112 30.264C112.405 29.816 112.715 29.2827 112.928 28.664C113.163 28.0453 113.28 27.3627 113.28 26.616C113.28 25.8907 113.163 25.2187 112.928 24.6C112.715 23.9813 112.405 23.448 112 23C111.616 22.552 111.157 22.2107 110.624 21.976C110.091 21.72 109.515 21.592 108.896 21.592C108.277 21.592 107.701 21.72 107.168 21.976C106.635 22.232 106.165 22.584 105.76 23.032C105.376 23.48 105.067 24.0133 104.832 24.632C104.619 25.2507 104.512 25.9227 104.512 26.648ZM130.318 35.096C129.188 35.096 128.164 34.872 127.246 34.424C126.329 33.976 125.529 33.368 124.846 32.6C124.185 31.8107 123.673 30.904 123.31 29.88C122.948 28.856 122.766 27.768 122.766 26.616C122.766 25.4 122.958 24.2693 123.342 23.224C123.726 22.1787 124.26 21.2613 124.942 20.472C125.625 19.6827 126.446 19.064 127.406 18.616C128.366 18.168 129.422 17.944 130.574 17.944C131.876 17.944 133.017 18.2427 133.998 18.84C134.98 19.416 135.79 20.1947 136.43 21.176V18.232H140.174V34.2C140.174 35.4373 139.94 36.5467 139.47 37.528C139.001 38.5093 138.35 39.3413 137.518 40.024C136.708 40.7067 135.726 41.2293 134.574 41.592C133.444 41.9547 132.206 42.136 130.862 42.136C129.028 42.136 127.481 41.8267 126.222 41.208C124.985 40.6107 123.918 39.7573 123.022 38.648L125.358 36.376C125.998 37.1653 126.798 37.784 127.758 38.232C128.74 38.68 129.774 38.904 130.862 38.904C131.524 38.904 132.153 38.808 132.75 38.616C133.369 38.4453 133.913 38.168 134.382 37.784C134.852 37.4 135.214 36.9093 135.47 36.312C135.748 35.7147 135.886 35.0107 135.886 34.2V32.088C135.332 33.048 134.553 33.7947 133.55 34.328C132.548 34.84 131.47 35.096 130.318 35.096ZM131.758 31.672C132.228 31.672 132.676 31.5973 133.102 31.448C133.529 31.2987 133.924 31.096 134.286 30.84C134.649 30.584 134.969 30.2853 135.246 29.944C135.524 29.6027 135.737 29.24 135.886 28.856V24.856C135.502 23.8747 134.894 23.0853 134.062 22.488C133.252 21.8907 132.398 21.592 131.502 21.592C130.841 21.592 130.244 21.7413 129.71 22.04C129.177 22.3173 128.718 22.7013 128.334 23.192C127.95 23.6613 127.652 24.2053 127.438 24.824C127.246 25.4427 127.15 26.0827 127.15 26.744C127.15 27.4267 127.268 28.0667 127.502 28.664C127.737 29.2613 128.057 29.784 128.462 30.232C128.889 30.68 129.38 31.032 129.934 31.288C130.489 31.544 131.097 31.672 131.758 31.672ZM154.983 35.32C153.618 35.32 152.391 35.0853 151.303 34.616C150.215 34.1467 149.287 33.5173 148.519 32.728C147.773 31.9173 147.197 30.9893 146.791 29.944C146.386 28.8987 146.183 27.8 146.183 26.648C146.183 25.4747 146.386 24.3653 146.791 23.32C147.197 22.2747 147.773 21.3573 148.519 20.568C149.287 19.7573 150.215 19.1173 151.303 18.648C152.391 18.1787 153.618 17.944 154.983 17.944C156.349 17.944 157.565 18.1787 158.631 18.648C159.719 19.1173 160.637 19.7573 161.383 20.568C162.151 21.3573 162.738 22.2747 163.143 23.32C163.549 24.3653 163.751 25.4747 163.751 26.648C163.751 27.8 163.549 28.8987 163.143 29.944C162.738 30.9893 162.162 31.9173 161.415 32.728C160.669 33.5173 159.751 34.1467 158.663 34.616C157.575 35.0853 156.349 35.32 154.983 35.32ZM150.599 26.648C150.599 27.3947 150.706 28.0773 150.919 28.696C151.154 29.2933 151.463 29.816 151.847 30.264C152.253 30.712 152.722 31.064 153.255 31.32C153.789 31.5547 154.365 31.672 154.983 31.672C155.602 31.672 156.178 31.5547 156.711 31.32C157.245 31.064 157.703 30.712 158.087 30.264C158.493 29.816 158.802 29.2827 159.015 28.664C159.25 28.0453 159.367 27.3627 159.367 26.616C159.367 25.8907 159.25 25.2187 159.015 24.6C158.802 23.9813 158.493 23.448 158.087 23C157.703 22.552 157.245 22.2107 156.711 21.976C156.178 21.72 155.602 21.592 154.983 21.592C154.365 21.592 153.789 21.72 153.255 21.976C152.722 22.232 152.253 22.584 151.847 23.032C151.463 23.48 151.154 24.0133 150.919 24.632C150.706 25.2507 150.599 25.9227 150.599 26.648Z" fill="#1B222A"/>
</svg>
