<svg id="Слой_1" data-name="Слой 1" xmlns="http://www.w3.org/2000/svg" width="389.85" height="63.47" viewBox="0 0 389.85 63.47">
  <title>Монтажная область 2</title>
  <g>
    <g>
      <path d="M351.71,25.69h-4.06V37.6h4.06a6.48,6.48,0,0,0,4.6-1.61A5.68,5.68,0,0,0,358,31.64a5.68,5.68,0,0,0-1.71-4.35A6.47,6.47,0,0,0,351.71,25.69Z" style="fill: #7784F9"/>
      <path d="M302.32,16.07V47.21h87.53V16.07Zm20.6,25.18-6.15-7.55-2.58,2.69v4.86h-4.42V22h4.42v9l8.51-9h4.94l-8,8.56,8.43,10.65Zm13.67,0h-4.45V22h4.45Zm24.6-4.56a8.88,8.88,0,0,1-3.73,3.36,12.23,12.23,0,0,1-5.53,1.2H343.2V22h8.73a12.22,12.22,0,0,1,5.53,1.19,9,9,0,0,1,3.73,3.36,9.45,9.45,0,0,1,1.33,5.05A9.42,9.42,0,0,1,361.19,36.69Zm20.28,1.94a6.17,6.17,0,0,1-2.76,2.15,11.2,11.2,0,0,1-4.47.8,15.82,15.82,0,0,1-4.41-.62,10.31,10.31,0,0,1-3.41-1.61L367.93,36a10.41,10.41,0,0,0,2.93,1.45,11,11,0,0,0,3.41.55,5.52,5.52,0,0,0,2.8-.56A1.72,1.72,0,0,0,378,36a1.44,1.44,0,0,0-.53-1.14,4.28,4.28,0,0,0-1.38-.73c-.55-.18-1.31-.38-2.26-.6a32.13,32.13,0,0,1-3.6-1,5.89,5.89,0,0,1-2.4-1.68,4.54,4.54,0,0,1-1-3.07,5.27,5.27,0,0,1,.91-3,6,6,0,0,1,2.73-2.16,11.13,11.13,0,0,1,4.46-.79,14.41,14.41,0,0,1,3.59.44,10.58,10.58,0,0,1,3.08,1.26l-1.38,3.37a10.73,10.73,0,0,0-5.32-1.51,5,5,0,0,0-2.76.61,1.84,1.84,0,0,0-.89,1.59,1.55,1.55,0,0,0,1,1.47,16.82,16.82,0,0,0,3.14.95,29.59,29.59,0,0,1,3.6,1,6,6,0,0,1,2.4,1.64,4.43,4.43,0,0,1,1,3A5.29,5.29,0,0,1,381.47,38.63Z" style="fill: #7784F9"/>
    </g>
    <path d="M0,47.4V0H5.48V20.15c1.42,0,2.77.05,4.07.14s2.57.2,3.84.33L33.85,0h6L19.17,21.76q9.51,2.55,14.72,9t7,16.64h-6a40.27,40.27,0,0,0-3.46-10.48,21.16,21.16,0,0,0-5.78-7.16,22.81,22.81,0,0,0-8.48-4.05A43.48,43.48,0,0,0,5.48,24.57V47.4Z" style="fill: #7784F9"/>
    <path d="M83.84,31.73a15.31,15.31,0,0,1-1.41,6.57,15.78,15.78,0,0,1-3.92,5.22,18.27,18.27,0,0,1-6,3.45,24.37,24.37,0,0,1-15.29,0,18.27,18.27,0,0,1-6-3.45,15.92,15.92,0,0,1-3.92-5.22,16,16,0,0,1,0-13.13A15.81,15.81,0,0,1,51.2,20a18.27,18.27,0,0,1,6-3.45,24.19,24.19,0,0,1,15.29,0,18.27,18.27,0,0,1,6,3.45,15.68,15.68,0,0,1,3.92,5.22,15.3,15.3,0,0,1,1.41,6.56m-5.48,0a12.87,12.87,0,0,0-1-4.92,11.92,11.92,0,0,0-2.7-4,12.74,12.74,0,0,0-4.26-2.71,15.05,15.05,0,0,0-5.63-1,14.7,14.7,0,0,0-5.59,1A12.8,12.8,0,0,0,55,22.8a11.92,11.92,0,0,0-2.7,4,13.24,13.24,0,0,0,0,9.85,12.12,12.12,0,0,0,2.7,4,12.58,12.58,0,0,0,4.23,2.68,15.1,15.1,0,0,0,5.59,1,15.47,15.47,0,0,0,5.63-1,12.52,12.52,0,0,0,4.26-2.68,12.12,12.12,0,0,0,2.7-4,12.88,12.88,0,0,0,1-4.93" style="fill: #7784F9"/>
    <polygon points="115.33 47.4 103.54 21.56 91.22 47.4 85.81 47.4 101.41 16.07 105.98 16.07 120.58 47.4 115.33 47.4" style="fill: #7784F9"/>
    <polygon points="152 21.89 130.17 47.4 124.84 47.4 124.84 16.07 130.17 16.07 130.17 40.64 152 16.07 157.33 16.07 157.33 47.4 152 47.4 152 21.89" style="fill: #7784F9"/>
    <path d="M183.73,16.6a21.57,21.57,0,0,1,7.15,1.14A16.42,16.42,0,0,1,196.47,21a14.67,14.67,0,0,1,3.62,5,15.79,15.79,0,0,1,1.29,6.46A14.59,14.59,0,0,1,199.93,39a14.91,14.91,0,0,1-3.88,5,17.52,17.52,0,0,1-5.7,3.15,21.41,21.41,0,0,1-6.93,1.1,22.73,22.73,0,0,1-7.64-1.2A15.94,15.94,0,0,1,170,43.55a15.3,15.3,0,0,1-3.65-5.42A18.83,18.83,0,0,1,165.09,31c0-1.3,0-2.55.11-3.75s.17-2.39.27-3.55Q166.69,11.85,172.58,6T190.42.07h10.27V4H190.27a26.8,26.8,0,0,0-9.17,1.34,14.82,14.82,0,0,0-5.89,3.81,16.47,16.47,0,0,0-3.46,6,42.48,42.48,0,0,0-1.79,7.7,13.57,13.57,0,0,1,5.63-4.48,19.24,19.24,0,0,1,8.14-1.68M195.9,32.4a12.19,12.19,0,0,0-.91-4.78,11.51,11.51,0,0,0-2.55-3.79,11.23,11.23,0,0,0-3.92-2.47,14.21,14.21,0,0,0-5.1-.87,17.15,17.15,0,0,0-4.94.7,12.67,12.67,0,0,0-4.18,2.11,10.2,10.2,0,0,0-2.9,3.51,10.8,10.8,0,0,0-1.06,4.92,13.24,13.24,0,0,0,.95,5.13,11.43,11.43,0,0,0,2.66,4,12.19,12.19,0,0,0,4.15,2.57,14.79,14.79,0,0,0,5.4.94,13.94,13.94,0,0,0,5.29-.94,11.37,11.37,0,0,0,3.92-2.57A10.78,10.78,0,0,0,195.1,37a13.27,13.27,0,0,0,.8-4.59" style="fill: #7784F9"/>
    <path d="M213.86,63.47h-5.18V16.07h5.18v5.42h.22a13.71,13.71,0,0,1,5.9-4.65,18.94,18.94,0,0,1,7.49-1.58A21.31,21.31,0,0,1,235,16.54,17.44,17.44,0,0,1,240.83,20a15.53,15.53,0,0,1,3.72,5.22,16.41,16.41,0,0,1,0,13,15.53,15.53,0,0,1-3.72,5.22A17.44,17.44,0,0,1,235,46.93a21.31,21.31,0,0,1-7.57,1.27A18.93,18.93,0,0,1,220,46.63a14.06,14.06,0,0,1-5.9-4.52h-.22Zm26.55-31.74a13.24,13.24,0,0,0-.92-4.92,11.43,11.43,0,0,0-2.62-4,12.27,12.27,0,0,0-4.22-2.71,15.3,15.3,0,0,0-5.71-1,15,15,0,0,0-5.48,1,13.24,13.24,0,0,0-4.33,2.68,12.35,12.35,0,0,0-2.86,4,12.69,12.69,0,0,0,0,10,12,12,0,0,0,2.86,4,13.67,13.67,0,0,0,4.33,2.64,15,15,0,0,0,5.48,1,15.72,15.72,0,0,0,5.71-1,12.06,12.06,0,0,0,4.22-2.68,11.62,11.62,0,0,0,2.62-4,13.25,13.25,0,0,0,.92-4.93" style="fill: #7784F9"/>
    <polygon points="280.04 21.89 258.21 47.4 252.88 47.4 252.88 16.07 258.21 16.07 258.21 40.64 280.04 16.07 285.37 16.07 285.37 47.4 280.04 47.4 280.04 21.89" style="fill: #7784F9"/>
  </g>
</svg>
