<svg width="237" height="38" viewBox="0 0 237 38" fill="none" xmlns="http://www.w3.org/2000/svg">
<path d="M236.143 9.5H183.214V28.5H236.143V9.5Z" fill="#5A73F5"/>
<path d="M191.432 20.1657L189.902 21.6857V24.4286H187.286V13.5714H189.902V18.6457L194.945 13.5714H197.868L193.153 18.4114L198.143 24.4286H195.075L191.432 20.1657Z" fill="white"/>
<path d="M204.929 13.5714H202.214V24.4286H204.929V13.5714Z" fill="white"/>
<path d="M207.643 13.5727H213.158C214.366 13.5523 215.563 13.7829 216.654 14.2464C217.628 14.6641 218.447 15.3243 219.012 16.1478C219.566 17.0178 219.857 18.0017 219.857 19.0027C219.857 20.0037 219.566 20.9876 219.012 21.8576C218.447 22.6794 217.628 23.3377 216.654 23.7532C215.564 24.2194 214.366 24.4502 213.158 24.427H207.643V13.5727ZM213.458 22.1374C214.542 22.1849 215.603 21.8531 216.417 21.2124C217.123 20.5324 217.516 19.6391 217.516 18.7115C217.516 17.7839 217.123 16.8906 216.417 16.2106C215.603 15.5699 214.542 15.2381 213.458 15.2856H210.838V22.1374H213.458Z" fill="white"/>
<path d="M224.604 24.0012C223.873 23.8038 223.184 23.4675 222.571 23.0094L223.469 20.9458C224 21.3423 224.59 21.6461 225.216 21.8452C225.874 22.0815 226.564 22.2063 227.261 22.2148C227.835 22.2539 228.409 22.1349 228.925 21.8698C229.086 21.7797 229.222 21.6466 229.317 21.4841C229.412 21.3217 229.463 21.1358 229.466 20.9458C229.468 20.811 229.44 20.6775 229.385 20.5557C229.329 20.4339 229.247 20.3271 229.145 20.2436C228.902 20.0428 228.626 19.8903 228.33 19.7939C227.998 19.683 227.552 19.5598 226.981 19.4243C226.259 19.2631 225.547 19.0574 224.848 18.8083C224.296 18.5933 223.805 18.2374 223.421 17.7734C223.004 17.2409 222.793 16.5672 222.827 15.8823C222.823 15.2247 223.009 14.581 223.362 14.0343C223.768 13.4378 224.331 12.9757 224.984 12.7037C225.827 12.3559 226.729 12.1903 227.635 12.2171C228.356 12.2138 229.075 12.3049 229.775 12.4881C230.419 12.6452 231.035 12.9072 231.599 13.2643L230.785 15.3402C229.825 14.75 228.733 14.4294 227.617 14.41C227.049 14.3704 226.482 14.5008 225.983 14.7858C225.819 14.8862 225.683 15.0295 225.589 15.2014C225.495 15.3733 225.447 15.5677 225.448 15.7652C225.447 15.9608 225.503 16.1519 225.61 16.3136C225.716 16.4753 225.867 16.5998 226.042 16.6708C226.646 16.9386 227.273 17.1449 227.914 17.2868C228.638 17.4451 229.35 17.6508 230.048 17.9028C230.596 18.1132 231.086 18.4602 231.474 18.913C231.886 19.4317 232.098 20.09 232.069 20.761C232.074 21.4206 231.883 22.0659 231.522 22.609C231.111 23.2036 230.544 23.6633 229.888 23.9334C229.042 24.2833 228.136 24.4509 227.225 24.4262C226.34 24.4276 225.46 24.299 224.61 24.0443" fill="white"/>
<path d="M0 28.5V0H3.13466V11.9276C4.47003 11.9276 5.32265 11.9276 6.1314 12.0124C6.94014 12.0973 7.74888 12.1337 8.53881 12.2126L21.3721 0H25.1337L12.1687 12.9038C16.1435 13.9347 19.2196 15.7538 21.3972 18.3613C23.5726 20.9748 25.0271 24.3402 25.7857 28.5H22.0241C21.6105 26.2788 20.8805 24.1239 19.8549 22.0966C18.9868 20.4123 17.7504 18.9309 16.2313 17.7549C14.6503 16.5978 12.8377 15.7718 10.9086 15.3294C8.37184 14.7619 5.7673 14.5294 3.166 14.6381V28.5H0Z" fill="#5A73F5"/>
<path d="M51.571 19.6784C51.5835 21.0788 51.2929 22.4649 50.7197 23.7384C50.1517 24.9687 49.3402 26.0668 48.3359 26.9642C47.2648 27.9036 46.0262 28.6253 44.6872 29.0899C43.1831 29.6156 41.6013 29.8748 40.0109 29.8562C38.4384 29.8728 36.8749 29.6136 35.3892 29.0899C34.0492 28.6277 32.8101 27.9058 31.7405 26.9642C30.7347 26.0683 29.9229 24.9698 29.3568 23.7384C28.792 22.4629 28.5 21.0802 28.5 19.6815C28.5 18.2829 28.792 16.9001 29.3568 15.6246C29.9199 14.3913 30.732 13.2923 31.7405 12.3989C32.8111 11.4572 34.0498 10.7334 35.3892 10.2669C36.8757 9.74625 38.4386 9.4871 40.0109 9.50065C41.6011 9.48524 43.1824 9.74435 44.6872 10.2669C46.0254 10.7362 47.2636 11.4597 48.3359 12.3989C49.3427 13.2939 50.1546 14.3926 50.7197 15.6246C51.2924 16.8962 51.583 18.2801 51.571 19.6784ZM48.2447 19.6784C48.2432 18.6339 48.0365 17.6003 47.6366 16.6381C47.2654 15.7065 46.706 14.8645 45.9947 14.1662C45.2594 13.4315 44.3868 12.8537 43.4284 12.4669C42.3368 12.0397 41.1744 11.8299 40.0048 11.8489C38.8429 11.8289 37.6884 12.0388 36.6054 12.4669C35.6502 12.8515 34.7784 13.4225 34.0392 14.1477C33.3278 14.8459 32.7685 15.688 32.3973 16.6195C31.6273 18.5709 31.6273 20.7489 32.3973 22.7002C32.7707 23.6306 33.3298 24.4722 34.0392 25.1721C34.7766 25.8936 35.6493 26.4568 36.6054 26.8282C37.69 27.2502 38.8434 27.4599 40.0048 27.4462C41.1739 27.4587 42.3351 27.2492 43.4284 26.8282C44.3948 26.463 45.2767 25.8993 46.019 25.1721C46.7284 24.4722 47.2875 23.6306 47.6609 22.7002C48.0608 21.7381 48.2676 20.7044 48.269 19.6599" fill="#5A73F5"/>
<path d="M70.2144 28.5L63.3084 12.8281L56.0946 28.5H52.9286L62.0656 9.5H64.7346L73.2857 28.5H70.2144Z" fill="#5A73F5"/>
<path d="M92.0312 13.0365L79.8594 28.5H76V9.5H78.9688V24.3997L91.1466 9.5H95V28.5H92.0312V13.0365Z" fill="#5A73F5"/>
<path d="M111.585 10.7315C113.038 10.7151 114.483 10.9641 115.859 11.4679C117.092 11.9116 118.229 12.6202 119.204 13.5512C120.13 14.4497 120.869 15.5528 121.37 16.7864C121.897 18.1069 122.16 19.5333 122.142 20.972C122.16 22.4436 121.864 23.8999 121.277 25.2268C120.723 26.4715 119.931 27.5743 118.954 28.462C117.944 29.3678 116.786 30.0596 115.54 30.5013C114.203 30.9839 112.802 31.2242 111.393 31.2125C109.84 31.2387 108.294 30.9747 106.823 30.432C105.545 29.9586 104.373 29.1971 103.386 28.1976C102.434 27.2075 101.69 26.0077 101.202 24.6792C100.67 23.2085 100.407 21.6391 100.43 20.0593C100.43 19.2159 100.43 18.404 100.494 17.6235C100.558 16.8431 100.593 16.0752 100.656 15.3262C101.136 10.2028 102.555 6.36755 104.913 3.82053C107.27 1.27351 110.826 0 115.58 0H121.724V2.51765H115.493C113.631 2.45819 111.774 2.75214 110.006 3.38623C108.666 3.89497 107.457 4.743 106.481 5.85982C105.545 6.97465 104.839 8.29183 104.408 9.72441C103.913 11.3496 103.555 13.0202 103.339 14.7156C104.2 13.4359 105.364 12.4313 106.707 11.8078C108.242 11.069 109.906 10.7017 111.585 10.7315ZM118.902 20.0971C118.912 19.0655 118.73 18.0423 118.368 17.0885C118.026 16.1941 117.522 15.383 116.887 14.703C116.238 14.0191 115.465 13.4896 114.616 13.1484C113.668 12.7715 112.664 12.586 111.655 12.6008C110.682 12.5953 109.714 12.7438 108.78 13.0414C107.905 13.3187 107.084 13.769 106.359 14.3695C105.653 14.9592 105.079 15.7145 104.681 16.5787C104.243 17.5413 104.022 18.6025 104.036 19.6754C104.033 20.7825 104.23 21.8796 104.617 22.9043C104.965 23.8518 105.494 24.7094 106.167 25.4219C106.861 26.1302 107.678 26.6803 108.571 27.0395C109.575 27.4463 110.641 27.6469 111.713 27.6312C112.761 27.6517 113.802 27.4507 114.779 27.0395C115.634 26.6806 116.41 26.1293 117.055 25.4219C117.671 24.7358 118.146 23.9164 118.449 23.0176C118.76 22.0918 118.917 21.1137 118.913 20.1286" fill="#5A73F5"/>
<path d="M129.281 38H126.214V10.2913H129.281V13.2391H129.428C130.358 11.9946 131.633 11.0263 133.107 10.4446C134.585 9.82984 136.177 9.50897 137.787 9.50135C139.398 9.47884 141 9.73854 142.515 10.2678C143.849 10.7309 145.076 11.4398 146.127 12.3547C147.12 13.2349 147.914 14.3026 148.458 15.4911C149.004 16.7242 149.286 18.0507 149.286 19.391C149.286 20.7313 149.004 22.0577 148.458 23.2908C147.914 24.4793 147.12 25.5471 146.127 26.4272C145.069 27.3448 143.833 28.0539 142.491 28.5142C140.975 29.0405 139.373 29.3001 137.762 29.2806C136.159 29.2642 134.576 28.9374 133.107 28.3197C131.649 27.748 130.378 26.8092 129.428 25.6018H129.281V38ZM145.618 19.2819C145.626 18.2897 145.436 17.3053 145.06 16.3813C144.701 15.4949 144.152 14.6913 143.447 14.0232C142.71 13.3174 141.829 12.7655 140.859 12.4019C139.744 11.9922 138.557 11.792 137.364 11.8124C136.215 11.8054 135.075 12.0054 134.003 12.4019C133.018 12.7584 132.114 13.295 131.341 13.9819C130.598 14.6456 130.003 15.448 129.593 16.3401C129.174 17.2706 128.958 18.2738 128.958 19.2878C128.958 20.3018 129.174 21.3051 129.593 22.2355C129.998 23.1303 130.594 23.9336 131.341 24.5937C132.12 25.2673 133.023 25.7951 134.003 26.1501C135.075 26.5466 136.215 26.7466 137.364 26.7397C138.557 26.754 139.742 26.5541 140.859 26.1501C141.828 25.804 142.709 25.2656 143.447 24.5701C144.15 23.9005 144.699 23.0974 145.06 22.212C145.436 21.288 145.626 20.3036 145.618 19.3114" fill="#5A73F5"/>
<path d="M169.388 13.0365L157.222 28.5H153.357V9.5H156.326V24.3997L168.498 9.5H172.357V28.5H169.388V13.0365Z" fill="#5A73F5"/>
</svg>
