<?xml version="1.0" standalone="no"?>
<!DOCTYPE svg PUBLIC "-//W3C//DTD SVG 20010904//EN"
 "http://www.w3.org/TR/2001/REC-SVG-20010904/DTD/svg10.dtd">
<svg version="1.0" xmlns="http://www.w3.org/2000/svg"
 width="700.000000pt" height="700.000000pt" viewBox="0 0 700.000000 700.000000"
 preserveAspectRatio="xMidYMid meet">
<metadata>
Created by potrace 1.11, written by Peter Selinger 2001-2013
</metadata>
<g transform="translate(0.000000,700.000000) scale(0.100000,-0.100000)"
fill="#000000" stroke="none">
<path d="M3219 6996 c-2 -2 -35 -7 -74 -10 -480 -45 -1017 -229 -1446 -496
-213 -133 -423 -301 -609 -489 -151 -152 -185 -189 -276 -306 -257 -329 -452
-695 -584 -1095 -55 -168 -122 -459 -136 -588 -3 -31 -7 -59 -9 -62 -2 -3 -6
-46 -10 -95 -4 -50 -9 -106 -11 -125 -6 -70 -6 -387 0 -455 12 -133 17 -180
32 -280 15 -104 17 -117 34 -200 6 -27 12 -60 15 -72 12 -67 70 -267 111 -384
206 -592 553 -1101 1029 -1510 245 -210 551 -405 815 -519 52 -23 104 -45 115
-51 11 -5 52 -21 90 -35 276 -103 582 -173 895 -205 117 -11 454 -15 545 -5
28 3 79 8 115 11 110 11 340 52 468 84 595 151 1128 452 1570 888 345 341 609
737 790 1188 74 185 173 526 196 680 3 17 7 44 10 60 17 100 26 169 31 240 4
44 8 96 11 115 6 48 5 380 -1 460 -5 65 -12 135 -20 200 -2 19 -7 58 -10 85
-9 76 -52 277 -85 400 -105 391 -292 786 -538 1134 -192 272 -478 563 -752
768 -88 65 -294 203 -303 203 -2 0 -42 22 -88 48 -300 172 -719 320 -1069 377
-19 3 -42 8 -50 10 -8 2 -44 7 -80 10 -36 4 -74 9 -85 12 -23 6 -630 14 -636
9z m566 -136 c44 -5 103 -12 130 -15 196 -21 576 -115 730 -180 17 -7 60 -25
98 -39 92 -36 261 -118 387 -189 317 -179 634 -442 881 -732 106 -124 109
-130 77 -122 -149 38 -363 22 -523 -38 -35 -13 -66 -20 -71 -15 -33 32 -352
116 -514 135 -154 19 -377 5 -561 -35 -109 -23 -257 -79 -379 -141 -318 -162
-576 -413 -760 -737 l-52 -92 -82 79 c-194 190 -420 348 -671 471 -292 142
-520 208 -846 244 -117 13 -428 14 -524 2 -145 -19 -157 -20 -257 -41 -39 -9
-72 -14 -74 -12 -7 7 82 132 190 267 93 116 230 260 341 359 98 88 117 104
180 151 33 25 62 47 65 50 3 3 52 38 110 77 259 175 575 326 870 416 159 48
340 92 425 102 22 3 51 7 65 10 32 6 90 13 165 21 33 3 61 7 63 8 7 8 468 5
537 -4z m1164 -1324 c86 -8 95 -9 181 -28 30 -6 59 -11 63 -10 5 2 6 -2 2 -8
-3 -5 -11 -10 -17 -10 -23 0 -262 -103 -398 -171 -363 -181 -652 -391 -945
-684 -133 -133 -163 -166 -250 -274 l-59 -73 -16 23 c-24 37 -163 223 -177
237 -10 11 -7 25 18 75 163 325 422 591 729 750 206 107 373 156 585 173 44 3
81 7 82 8 4 3 122 -2 202 -8z m1106 -76 c61 -13 177 -56 197 -73 52 -42 240
-401 331 -632 51 -129 139 -409 152 -487 4 -18 10 -51 15 -73 5 -22 12 -56 15
-75 3 -19 8 -42 10 -50 2 -8 7 -42 11 -75 3 -33 8 -69 10 -80 19 -94 27 -598
11 -715 -8 -56 -13 -98 -22 -172 -3 -24 -8 -54 -10 -68 -3 -14 -7 -41 -10 -60
-34 -208 -119 -495 -218 -730 -235 -561 -657 -1092 -1129 -1422 -50 -35 -95
-68 -102 -73 -25 -23 -244 -149 -358 -206 -193 -97 -429 -187 -628 -239 -167
-44 -409 -84 -584 -96 -171 -12 -488 -6 -586 10 -14 2 -50 7 -80 11 -30 4 -62
8 -70 10 -8 1 -33 6 -55 9 -22 4 -56 9 -75 12 -82 14 -325 80 -445 122 -577
200 -1074 544 -1470 1017 -32 39 -67 81 -79 94 -26 30 -10 22 74 -39 158 -112
387 -242 540 -305 36 -14 79 -32 95 -39 195 -85 501 -165 735 -191 30 -4 71
-9 90 -11 39 -5 368 -6 415 0 17 2 62 6 100 10 94 10 397 70 515 102 174 47
370 134 534 236 476 297 829 812 981 1432 34 139 39 162 49 241 3 22 10 73 16
114 27 196 30 580 5 751 -2 14 -6 50 -10 80 -3 30 -15 100 -25 155 -67 356
-30 661 116 948 82 160 170 276 311 409 82 77 210 134 350 157 62 11 214 6
278 -9z m-755 -93 c-105 -98 -226 -263 -302 -412 -103 -201 -161 -439 -160
-660 0 -92 10 -264 16 -274 3 -4 7 -26 11 -51 4 -25 8 -47 10 -50 2 -4 7 -29
10 -56 3 -27 10 -74 15 -104 5 -30 11 -88 15 -128 l6 -73 -83 -83 c-233 -233
-506 -415 -804 -535 -42 -17 -79 -29 -81 -27 -3 3 -7 35 -9 73 -2 37 -6 86 -9
108 -2 22 -7 63 -11 90 -10 89 -54 297 -85 405 -43 146 -89 261 -171 428 -47
96 -67 146 -61 155 408 545 1014 982 1688 1215 43 15 43 15 5 -21z m-3690 -41
c14 -2 61 -10 105 -16 260 -38 541 -132 775 -257 314 -168 544 -361 799 -668
32 -38 151 -214 151 -223 0 -5 -19 -35 -41 -68 -228 -325 -440 -791 -540
-1189 -17 -66 -34 -124 -38 -128 -4 -4 -28 -3 -52 2 -24 5 -60 12 -79 15 -94
15 -146 29 -300 78 -367 118 -697 322 -975 602 -245 247 -442 552 -564 872
-44 115 -101 307 -116 389 -2 17 -9 55 -15 85 -19 107 -46 430 -35 430 1 0 37
9 81 20 43 11 90 22 104 24 14 3 45 8 70 12 66 10 88 13 165 20 39 4 72 8 74
10 6 5 402 -4 431 -10z m-1036 -341 c3 -38 7 -81 10 -95 2 -14 7 -47 11 -75 4
-27 20 -104 35 -170 211 -890 847 -1596 1695 -1879 137 -46 205 -64 350 -91
132 -24 129 -22 114 -95 -5 -19 -11 -57 -14 -85 -22 -175 -68 -322 -147 -470
-96 -178 -278 -372 -446 -473 -145 -87 -267 -133 -422 -158 -91 -15 -290 -21
-327 -10 -10 3 -36 7 -58 11 -183 26 -384 114 -515 224 -83 71 -74 62 -175
161 -96 94 -134 158 -235 399 -83 197 -175 494 -195 631 -4 24 -8 47 -10 51
-4 6 -20 100 -30 179 -3 25 -8 61 -10 80 -26 186 -26 597 -1 780 24 167 30
209 41 260 3 14 7 34 9 45 37 178 121 443 204 640 32 75 103 218 106 214 2 -2
7 -35 10 -74z m2981 -1016 c111 -219 206 -518 239 -754 4 -22 8 -51 11 -65 5
-34 17 -173 19 -238 l1 -52 -50 -14 c-216 -61 -404 -87 -643 -90 -95 -1 -175
1 -177 5 -6 9 51 219 96 354 103 305 252 608 424 868 21 31 39 57 41 57 2 0
20 -32 39 -71z m1370 -716 c-7 -189 -24 -330 -56 -482 -12 -51 -22 -103 -25
-115 -24 -124 -134 -416 -215 -573 -231 -440 -592 -773 -1028 -948 -51 -20
-99 -38 -109 -40 -9 -3 -60 -16 -111 -29 -52 -14 -96 -24 -98 -23 -1 2 24 35
57 75 163 200 316 459 409 695 58 146 118 343 138 447 2 14 8 43 13 65 5 22
12 63 16 90 3 28 7 57 9 65 2 8 6 51 10 95 3 44 8 105 11 135 2 30 8 57 12 61
4 3 45 21 92 39 291 112 572 289 810 509 30 27 58 50 62 51 4 0 5 -53 3 -117z
m-1110 -595 c-9 -114 -27 -250 -47 -348 -6 -30 -12 -59 -14 -65 -40 -202 -179
-545 -304 -751 -47 -77 -156 -235 -189 -274 -12 -14 -38 -45 -59 -70 -82 -98
-136 -151 -166 -159 -17 -4 -34 -5 -38 -2 -18 16 -85 325 -103 476 -4 28 -8
61 -11 75 -12 74 -19 229 -19 425 0 267 12 422 47 612 l11 62 151 -2 c83 -1
195 2 249 6 106 9 341 48 422 71 78 22 76 25 70 -56z m-1076 -825 c0 -54 3
-120 6 -148 20 -217 18 -204 46 -373 12 -68 33 -173 48 -233 23 -93 25 -109
11 -110 -8 0 -24 -2 -35 -5 -24 -5 -334 -5 -385 0 -19 2 -65 7 -102 10 -37 4
-77 9 -89 11 -13 3 -39 7 -59 10 -202 30 -497 124 -690 219 -84 42 -98 52 -57
42 30 -7 255 -8 297 -1 14 2 45 7 70 11 70 10 207 52 294 90 224 97 447 286
577 490 30 46 57 83 60 84 3 0 7 -44 8 -97z"/>
</g>
</svg>
